<svg 
          width="24" 
          height="18" fill="none" 
          xmlns="http://www.w3.org/2000/svg">
          <path d="M 22 0 L 20 0 L 20 1.9285714285714288 C 20 2.991857171058655 18.65400004386902 3.8571428571428577 17 3.8571428571428577 L 7 3.8571428571428577 C 5.3459999561309814 3.8571428571428577 4 2.991857171058655 4 1.9285714285714288 L 4 0 L 2 0 C 0.8980000019073486 0 0 0.577285715511867 0 1.2857142857142858 L 0 16.714285714285715 C 0 17.43557141508375 0.878000020980835 18 2 18 L 22 18 C 23.121999979019165 18 24 17.43557141508375 24 16.714285714285715 L 24 1.2857142857142858 C 24 0.5644285849162511 23.121999979019165 0 22 0 Z M 11.708000183105469 11.383714403424944 L 7.708000183105469 13.955142974853517 C 7.512000188231468 14.079857264246261 7.2560000121593475 14.142857142857144 7 14.142857142857144 C 6.7439999878406525 14.142857142857144 6.487999811768532 14.079857264246261 6.291999816894531 13.955142974853517 L 4.291999816894531 12.669428689139231 C 3.901999831199646 12.41871441262109 3.901999831199646 12.011143250124796 4.291999816894531 11.760428973606656 C 4.6819998025894165 11.509714697088516 5.31600034236908 11.509714697088516 5.706000328063965 11.760428973606656 L 7 12.591000284467425 L 10.291999816894531 10.47471468789237 C 10.681999802589417 10.224000411374229 11.31600034236908 10.224000411374229 11.706000328063965 10.47471468789237 C 12.09600031375885 10.72542896441051 12.098000168800354 11.131714410015515 11.708000183105469 11.383714403424944 Z M 11.708000183105469 6.240857260567802 L 7.708000183105469 8.812285831996373 C 7.512000188231468 8.937000121389117 7.2560000121593475 9 7 9 C 6.7439999878406525 9 6.487999811768532 8.937000121389117 6.291999816894531 8.812285831996373 L 4.291999816894531 7.526571546282088 C 3.901999831199646 7.275857269763947 3.901999831199646 6.868285494191306 4.291999816894531 6.617571217673166 C 4.6819998025894165 6.366856941155025 5.31600034236908 6.366856941155025 5.706000328063965 6.617571217673166 L 7 7.448143141610283 L 10.291999816894531 5.33185693195888 C 10.681999802589417 5.08114265544074 11.31600034236908 5.08114265544074 11.706000328063965 5.33185693195888 C 12.09600031375885 5.58257120847702 12.098000168800354 5.988857267158373 11.708000183105469 6.240857260567802 Z M 19 12.857142857142858 L 15 12.857142857142858 C 14.448000013828278 12.857142857142858 14 12.569142848253252 14 12.214285714285715 C 14 11.859428580318179 14.448000013828278 11.571428571428573 15 11.571428571428573 L 19 11.571428571428573 C 19.551999986171722 11.571428571428573 20 11.859428580318179 20 12.214285714285715 C 20 12.569142848253252 19.551999986171722 12.857142857142858 19 12.857142857142858 Z M 19 7.714285714285715 L 15 7.714285714285715 C 14.448000013828278 7.714285714285715 14 7.426285705396108 14 7.071428571428572 C 14 6.716571437461036 14.448000013828278 6.428571428571429 15 6.428571428571429 L 19 6.428571428571429 C 19.551999986171722 6.428571428571429 20 6.716571437461036 20 7.071428571428572 C 20 7.426285705396108 19.551999986171722 7.714285714285715 19 7.714285714285715 Z" fill="rgb(244.3749949336052,178.72600883245468,66.18489414453506)"/>
        </svg>